<svg width="135" height="103" viewBox="0 0 135 103" fill="none" xmlns="http://www.w3.org/2000/svg">
<circle cx="8" cy="95" r="8" fill="#363636"/>
<circle cx="8" cy="95" r="8" fill="#363636"/>
<circle cx="49" cy="95" r="8" fill="#363636"/>
<circle cx="49" cy="95" r="8" fill="#363636"/>
<circle cx="49" cy="66" r="8" fill="#363636"/>
<circle cx="49" cy="66" r="8" fill="#363636"/>
<circle cx="8" cy="66" r="8" fill="#363636"/>
<circle cx="8" cy="66" r="8" fill="#363636"/>
<circle cx="86" cy="37" r="8" fill="#363636"/>
<circle cx="86" cy="37" r="8" fill="#363636"/>
<circle cx="127" cy="37" r="8" fill="#363636"/>
<circle cx="127" cy="37" r="8" fill="#363636"/>
<circle cx="127" cy="8" r="8" fill="#363636"/>
<circle cx="127" cy="8" r="8" fill="#363636"/>
<circle cx="86" cy="8" r="8" fill="#363636"/>
<circle cx="86" cy="8" r="8" fill="#363636"/>
<circle cx="8" cy="37" r="8" fill="#363636"/>
<circle cx="8" cy="37" r="8" fill="#363636"/>
<circle cx="49" cy="37" r="8" fill="#363636"/>
<circle cx="49" cy="37" r="8" fill="#363636"/>
<circle cx="49" cy="8" r="8" fill="#363636"/>
<circle cx="49" cy="8" r="8" fill="#363636"/>
<circle cx="8" cy="8" r="8" fill="#363636"/>
<circle cx="8" cy="8" r="8" fill="#363636"/>
<circle cx="86" cy="95" r="8" fill="#363636"/>
<circle cx="86" cy="95" r="8" fill="#363636"/>
<circle cx="127" cy="95" r="8" fill="#363636"/>
<circle cx="127" cy="95" r="8" fill="#363636"/>
<circle cx="127" cy="66" r="8" fill="#363636"/>
<circle cx="127" cy="66" r="8" fill="#363636"/>
<circle cx="86" cy="66" r="8" fill="#363636"/>
<circle cx="86" cy="66" r="8" fill="#363636"/>
</svg>
